<?xml version="1.0" encoding="UTF-8"?>
<svg version="1.1" xmlns="http://www.w3.org/2000/svg" width="352" height="375">
<path d="M0 0 C0.73792786 -0.00705963 1.47585571 -0.01411926 2.23614502 -0.02139282 C33.39638811 -0.25172154 33.39638811 -0.25172154 47.109375 3.203125 C48.28064941 3.49316406 48.28064941 3.49316406 49.47558594 3.7890625 C81.09607339 11.89110911 107.61457326 27.81886042 131.109375 50.203125 C131.76550781 50.81800781 132.42164063 51.43289062 133.09765625 52.06640625 C158.36175287 76.40124874 173.9902782 109.50582098 182.109375 143.203125 C182.42696777 144.49089844 182.42696777 144.49089844 182.75097656 145.8046875 C189.15957666 173.02346446 188.79553514 205.0921195 182.109375 232.203125 C181.89506836 233.09257812 181.68076172 233.98203125 181.45996094 234.8984375 C173.39331877 267.49377762 157.72135989 296.40675516 135.109375 321.203125 C134.6565918 321.70118652 134.20380859 322.19924805 133.73730469 322.71240234 C105.84284518 352.95597243 64.33382091 373.08865234 23.18530273 375.42602539 C19.03491098 375.5660469 14.88681917 375.5907924 10.734375 375.578125 C9.99503723 375.5769165 9.25569946 375.57570801 8.49395752 375.57446289 C-19.69102981 375.45032996 -46.17340326 368.93180812 -70.890625 355.203125 C-71.90640625 354.66300781 -72.9221875 354.12289063 -73.96875 353.56640625 C-87.64195539 346.01689579 -99.68514167 336.00419991 -110.890625 325.203125 C-111.59316406 324.55214844 -112.29570313 323.90117187 -113.01953125 323.23046875 C-136.50431172 300.8843443 -151.53181705 269.92569762 -160.203125 239.140625 C-160.43338379 238.34068115 -160.66364258 237.5407373 -160.90087891 236.71655273 C-165.18729373 220.70460769 -166.44913822 204.46306314 -166.328125 187.953125 C-166.32508362 187.06403442 -166.32204224 186.17494385 -166.31890869 185.25891113 C-166.24674626 170.93097995 -165.33371831 157.16416088 -161.890625 143.203125 C-161.67631836 142.31367188 -161.46201172 141.42421875 -161.24121094 140.5078125 C-152.9705678 107.08815405 -136.99373178 78.51753946 -113.890625 53.203125 C-113.00761719 52.23503906 -112.12460938 51.26695313 -111.21484375 50.26953125 C-99.54542366 38.06887807 -85.64164518 28.31424005 -70.890625 20.203125 C-70.29024414 19.86474609 -69.68986328 19.52636719 -69.07128906 19.17773438 C-52.40033426 9.86763362 -33.77272607 3.87532878 -14.890625 1.203125 C-13.82948486 1.03256592 -12.76834473 0.86200684 -11.67504883 0.6862793 C-7.76745835 0.18740041 -3.93177897 0.02503989 0 0 Z " fill="#F4F5FA" transform="translate(165.890625,-0.203125)"/>
<path d="M0 0 C0.79062332 -0.00043808 1.58124664 -0.00087616 2.39582825 -0.00132751 C5.00404725 0.00075928 7.61162012 0.02408478 10.21972656 0.04760742 C12.03004607 0.05320377 13.84037012 0.05747369 15.6506958 0.06047058 C20.4117694 0.07191627 25.17256775 0.10138109 29.93353271 0.13458252 C34.79321571 0.16528934 39.65294324 0.17897723 44.51269531 0.1940918 C54.04536822 0.22625104 63.57783699 0.27744409 73.11035156 0.34057617 C73.11035156 2.65057617 73.11035156 4.96057617 73.11035156 7.34057617 C48.69035156 7.67057617 24.27035156 8.00057617 -0.88964844 8.34057617 C-0.74091853 22.35723387 -0.74091853 22.35723387 -0.58300781 36.3737793 C-0.51660458 42.08672444 -0.451299 47.79966793 -0.39233398 53.51269531 C-0.34475279 58.1162931 -0.29241251 62.71981398 -0.23670769 67.32332039 C-0.21625574 69.0836503 -0.19754746 70.84400132 -0.18057442 72.60436821 C-0.156593 75.06135605 -0.12653035 77.51819717 -0.0949707 79.97509766 C-0.08633751 81.07776726 -0.08633751 81.07776726 -0.07752991 82.20271301 C-0.31921275 85.55784138 -0.31921275 85.55784138 1.11035156 88.34057617 C2.74218463 88.44880006 4.37867499 88.48742648 6.01405334 88.49879456 C7.07561142 88.50858337 8.13716949 88.51837219 9.230896 88.52845764 C10.99279266 88.53709084 10.99279266 88.53709084 12.7902832 88.54589844 C14.01937912 88.55579803 15.24847504 88.56569763 16.51481628 88.57589722 C19.89480946 88.60214819 23.27477822 88.623984 26.65481114 88.6438992 C30.18359155 88.66572077 33.71232835 88.69312813 37.24107361 88.71995544 C43.92755111 88.76993429 50.61405274 88.81485378 57.30057758 88.85797781 C64.91112557 88.90730592 72.52162981 88.96224041 80.13213551 89.0176574 C95.79150046 89.13155711 111.4509056 89.23837865 127.11035156 89.34057617 C128.14749679 86.2291405 128.31067018 83.84589522 128.42675781 80.57885742 C128.46865234 79.4605957 128.51054687 78.34233398 128.55371094 77.19018555 C128.59302734 76.02293945 128.63234375 74.85569336 128.67285156 73.65307617 C128.73762695 71.88480469 128.73762695 71.88480469 128.80371094 70.08081055 C128.90986332 67.16751734 129.01191398 64.2541386 129.11035156 61.34057617 C132.41035156 61.34057617 135.71035156 61.34057617 139.11035156 61.34057617 C139.13511516 65.68220632 139.15324171 70.02379878 139.1652832 74.36547852 C139.17030444 75.84172278 139.17712272 77.3179621 139.18579102 78.79418945 C139.19795345 80.91903915 139.20360202 83.04382295 139.20800781 85.16870117 C139.21324463 86.44648438 139.21848145 87.72426758 139.22387695 89.04077148 C139.13229788 91.70266977 138.9114367 93.82367199 138.11035156 96.34057617 C138.67882812 96.39858398 139.24730469 96.4565918 139.83300781 96.51635742 C143.12393372 97.70741294 144.41459955 99.78849257 146.54785156 102.52807617 C149.03517857 105.70198765 151.50553002 108.8112113 154.23535156 111.77807617 C156.11035156 114.34057617 156.11035156 114.34057617 156.11035156 116.40307617 C152.67556895 123.05796748 152.67556895 123.05796748 150.11035156 124.34057617 C147.92494346 124.43246559 145.73665187 124.45807854 143.54931641 124.45410156 C142.87602798 124.45424759 142.20273956 124.45439362 141.50904846 124.45454407 C139.27976275 124.45384644 137.05056021 124.44606106 134.82128906 124.43823242 C133.27715094 124.43636771 131.73301222 124.43494406 130.18887329 124.4339447 C126.12164684 124.43012372 122.05445601 124.42029699 117.98724365 124.40924072 C113.83818036 124.39901762 109.68911132 124.39444515 105.54003906 124.3894043 C97.39679354 124.37867436 89.25357698 124.36160294 81.11035156 124.34057617 C81.11035156 122.03057617 81.11035156 119.72057617 81.11035156 117.34057617 C84.74035156 117.34057617 88.37035156 117.34057617 92.11035156 117.34057617 C90.79035156 115.03057617 89.47035156 112.72057617 88.11035156 110.34057617 C72.27035156 110.34057617 56.43035156 110.34057617 40.11035156 110.34057617 C38.79035156 112.65057617 37.47035156 114.96057617 36.11035156 117.34057617 C39.74035156 117.34057617 43.37035156 117.34057617 47.11035156 117.34057617 C47.11035156 119.65057617 47.11035156 121.96057617 47.11035156 124.34057617 C38.57411708 124.3869242 30.03793521 124.42245788 21.50160599 124.44420052 C17.53780929 124.45463608 13.5740987 124.46879109 9.61035156 124.49145508 C5.7848501 124.51319162 1.95943144 124.52514651 -1.86612701 124.53033066 C-3.3253637 124.53402496 -4.78459588 124.54123901 -6.2437973 124.55203629 C-8.28828209 124.56656217 -10.33242501 124.56855368 -12.37695312 124.56762695 C-13.54055359 124.57206818 -14.70415405 124.5765094 -15.90301514 124.58108521 C-18.81974777 124.34620517 -20.4728208 123.94847449 -22.88964844 122.34057617 C-24.21026861 119.78774554 -24.72390295 117.20397234 -24.88964844 114.34057617 C-23.63964844 112.15307617 -23.63964844 112.15307617 -21.88964844 110.34057617 C-21.60780701 109.56069839 -21.32596558 108.78082062 -21.0355835 107.97731018 C-19.72945959 104.97199038 -18.16147079 103.5885902 -15.8046875 101.34033203 C-9.43687451 93.516055 -10.98438426 83.89097003 -11.24902344 74.34448242 C-11.27413673 72.30334524 -11.29508662 70.262153 -11.31207275 68.22093201 C-11.36504 62.87339127 -11.46268382 57.5277125 -11.57348633 52.18109131 C-11.74668026 43.60016273 -11.86474959 35.01870121 -11.95764923 26.43656731 C-11.99856392 23.44063032 -12.06671983 20.44617889 -12.13763428 17.45082092 C-12.16493483 15.62315184 -12.19137002 13.79546955 -12.21679688 11.96777344 C-12.24374634 11.13400177 -12.2706958 10.3002301 -12.29846191 9.44119263 C-12.34214144 3.93840616 -12.34214144 3.93840616 -10.36230469 1.32266235 C-6.90560992 -0.05026288 -3.66041732 -0.05313473 0 0 Z " fill="#3F9DDB" transform="translate(105.8896484375,111.659423828125)"/>
<path d="M0 0 C0.22551667 4.27010907 0.42747453 8.54101182 0.625 12.8125 C0.68945312 14.02744141 0.75390625 15.24238281 0.8203125 16.49414062 C0.871875 17.65751953 0.9234375 18.82089844 0.9765625 20.01953125 C1.02893066 21.09307861 1.08129883 22.16662598 1.13525391 23.27270508 C1 26 1 26 -1 29 C6.92 29 14.84 29 23 29 C23 39.23 23 49.46 23 60 C15.636875 60.0928125 15.636875 60.0928125 8.125 60.1875 C6.57699707 60.21481201 5.02899414 60.24212402 3.43408203 60.27026367 C2.22091309 60.27775635 1.00774414 60.28524902 -0.2421875 60.29296875 C-1.4885498 60.3086792 -2.73491211 60.32438965 -4.01904297 60.34057617 C-5.00275879 60.22818604 -5.98647461 60.1157959 -7 60 C-9.21841082 56.67238377 -9.26833706 55.48824885 -9.34375 51.59765625 C-9.37339844 50.54255859 -9.40304688 49.48746094 -9.43359375 48.40039062 C-9.45550781 47.29888672 -9.47742188 46.19738281 -9.5 45.0625 C-9.54344275 42.88652908 -9.5951913 40.71070413 -9.65625 38.53515625 C-9.68428711 37.08701538 -9.68428711 37.08701538 -9.71289062 35.60961914 C-10.00715598 32.93495725 -10.71777366 31.33123336 -12 29 C-12 28.34 -12 27.68 -12 27 C-15.63 27 -19.26 27 -23 27 C-23.33 32.94 -23.66 38.88 -24 45 C-24.33 45 -24.66 45 -25 45 C-25 41.04 -25 37.08 -25 33 C-25.99 33 -26.98 33 -28 33 C-28 37.95 -28 42.9 -28 48 C-33.94 48 -39.88 48 -46 48 C-46 42.06 -46 36.12 -46 30 C-40.06 30 -34.12 30 -28 30 C-28 29.34 -28 28.68 -28 28 C-27.34 28 -26.68 28 -26 28 C-26 19.09 -26 10.18 -26 1 C-21.895625 0.835 -17.79125 0.67 -13.5625 0.5 C-12.26642822 0.44779297 -10.97035645 0.39558594 -9.63500977 0.34179688 C-8.62237061 0.30119141 -7.60973145 0.26058594 -6.56640625 0.21875 C-5.52427979 0.17685547 -4.48215332 0.13496094 -3.40844727 0.09179688 C-1 0 -1 0 0 0 Z " fill="#C0CEF8" transform="translate(238,106)"/>
<path d="M0 0 C0.33 0.99 0.66 1.98 1 3 C0.484375 3.556875 -0.03125 4.11375 -0.5625 4.6875 C-2.28029639 7.45091159 -2.06197045 8.10987238 -1.375 11.1875 C-0.91667377 13.2745396 -0.91667377 13.2745396 0 15 C3.33049032 16.11016344 5.88945666 16.15852609 9.39916992 16.20532227 C10.04334366 16.21522186 10.6875174 16.22512146 11.35121155 16.23532104 C13.4775934 16.26687467 15.60399758 16.29166905 17.73046875 16.31640625 C19.20592322 16.33698109 20.68137186 16.3579777 22.15681458 16.37937927 C26.03819051 16.43454526 29.91961915 16.48397862 33.80108643 16.53222656 C37.76262091 16.58248158 41.72407894 16.63814676 45.68554688 16.69335938 C53.45696649 16.80087399 61.22844972 16.90233377 69 17 C69 14.69 69 12.38 69 10 C65.37 10 61.74 10 58 10 C58.93033327 6.27866693 59.40756421 4.67204406 62 2 C64.15611267 1.4853363 64.15611267 1.4853363 66.68334961 1.46655273 C68.10513771 1.44279823 68.10513771 1.44279823 69.5556488 1.41856384 C71.0885128 1.42600365 71.0885128 1.42600365 72.65234375 1.43359375 C74.22986168 1.42429588 74.22986168 1.42429588 75.83924866 1.41481018 C78.06429111 1.40770346 80.28938664 1.41090079 82.5144043 1.42358398 C85.92140552 1.43743457 89.32565345 1.40340752 92.73242188 1.36523438 C94.89322984 1.36428307 97.05404125 1.36614259 99.21484375 1.37109375 C100.23472885 1.35783554 101.25461395 1.34457733 102.30540466 1.33091736 C109.34471485 1.4236865 109.34471485 1.4236865 112.67407227 4.35180664 C114 7 114 7 114 10 C110.37 10 106.74 10 103 10 C103.495 12.97 103.495 12.97 104 16 C126.44 16 148.88 16 172 16 C172 16.99 172 17.98 172 19 C149.67822355 19.36416954 127.35631605 19.67091721 105.03282738 19.90927315 C94.66762958 20.02128575 84.30330549 20.15209719 73.93896484 20.32714844 C64.90558992 20.47967232 55.87256354 20.59694176 46.83819926 20.67185199 C42.05397857 20.71275359 37.27144407 20.77131771 32.48807907 20.87210464 C27.98494763 20.96642999 23.48377625 21.01357697 18.97969437 21.02467537 C17.32750468 21.03704083 15.67533992 21.0665982 14.02380371 21.11467934 C1.61333154 21.46178764 1.61333154 21.46178764 -2.37989426 17.84365463 C-4.5228674 14.5154374 -6.25162057 11.82184425 -5.69371986 7.78239632 C-4.46739444 4.63155975 -2.22733689 2.5128929 0 0 Z " fill="#69ACD7" transform="translate(84,219)"/>
<path d="M0 0 C9.9 0 19.8 0 30 0 C30 9.9 30 19.8 30 30 C20.1 30 10.2 30 0 30 C0 20.1 0 10.2 0 0 Z " fill="#65B7F5" transform="translate(231,136)"/>
<path d="M0 0 C1.4540625 0.0309375 1.4540625 0.0309375 2.9375 0.0625 C4.64963941 5.57856654 5.69361162 11.04459521 6.5625 16.75 C6.6965625 17.59111328 6.830625 18.43222656 6.96875 19.29882812 C7.54005159 22.97439601 7.9375 26.32355749 7.9375 30.0625 C6.2875 30.0625 4.6375 30.0625 2.9375 30.0625 C2.9375 29.0725 2.9375 28.0825 2.9375 27.0625 C0.9575 27.0625 -1.0225 27.0625 -3.0625 27.0625 C-3.0625 28.0525 -3.0625 29.0425 -3.0625 30.0625 C-3.784375 30.041875 -4.50625 30.02125 -5.25 30 C-8.00810187 29.97489564 -8.00810187 29.97489564 -10.4375 30.5625 C-13.0625 31.0625 -13.0625 31.0625 -20.0625 31.0625 C-20.0625 22.4825 -20.0625 13.9025 -20.0625 5.0625 C-21.7125 5.0625 -23.3625 5.0625 -25.0625 5.0625 C-25.0625 3.7425 -25.0625 2.4225 -25.0625 1.0625 C-19.7825 1.0625 -14.5025 1.0625 -9.0625 1.0625 C-8.7325 3.0425 -8.4025 5.0225 -8.0625 7.0625 C-7.4025 7.0625 -6.7425 7.0625 -6.0625 7.0625 C-5.753125 6.093125 -5.44375 5.12375 -5.125 4.125 C-3.72021812 0.07592282 -3.72021812 0.07592282 0 0 Z " fill="#E4E7F0" transform="translate(228.0625,261.9375)"/>
<path d="M0 0 C2.4375 2 2.4375 2 4 4 C4 3.01 4 2.02 4 1 C6.64 0.67 9.28 0.34 12 0 C12 9.9 12 19.8 12 30 C10.02 30 8.04 30 6 30 C5.34 28.68 4.68 27.36 4 26 C1.53199953 27.15173355 -0.04783565 28.04783565 -2 30 C-4.8125 30.5625 -4.8125 30.5625 -8 30 C-12.81126216 24.66041477 -13.75623918 20.87654819 -13.5 13.8125 C-13.50257813 13.01908203 -13.50515625 12.22566406 -13.5078125 11.40820312 C-13.44959092 7.94110794 -13.32139135 5.59513456 -11.65625 2.51171875 C-8.24287411 -0.60379179 -4.39305542 -0.38535574 0 0 Z " fill="#EEF2FA" transform="translate(188,263)"/>
<path d="M0 0 C7.59 0 15.18 0 23 0 C23 7.59 23 15.18 23 23 C15.41 23 7.82 23 0 23 C0 15.41 0 7.82 0 0 Z " fill="#233DF8" transform="translate(213,108)"/>
<path d="M0 0 C0.69294159 -0.00014603 1.38588318 -0.00029205 2.099823 -0.0004425 C4.38860207 0.00025376 6.67729961 0.00803279 8.96606445 0.01586914 C10.55361385 0.01773434 12.14116381 0.01915776 13.72871399 0.02015686 C17.9060729 0.02397405 22.08339702 0.03379753 26.26074219 0.04486084 C30.52383961 0.05509211 34.78694266 0.05965816 39.05004883 0.06469727 C47.41399708 0.0754205 55.77791706 0.09248736 64.1418457 0.11352539 C64.1418457 0.44352539 64.1418457 0.77352539 64.1418457 1.11352539 C62.87397469 1.12232475 62.87397469 1.12232475 61.58049011 1.13130188 C53.61980305 1.18917481 45.65939819 1.26122013 37.6989851 1.3492403 C33.60630952 1.39399258 29.5137346 1.43323771 25.42089844 1.45996094 C21.47200855 1.48594588 17.52350504 1.52631339 13.5748539 1.57671165 C12.06740431 1.5934131 10.55988785 1.60490695 9.05235863 1.6111393 C6.9426956 1.62074529 4.83402831 1.64875958 2.72460938 1.68115234 C0.92258308 1.69780693 0.92258308 1.69780693 -0.91584778 1.71479797 C-3.87557561 1.85940124 -3.87557561 1.85940124 -5.76957703 3.64054871 C-6.12880753 4.12663101 -6.48803802 4.61271332 -6.8581543 5.11352539 C-6.5281543 5.11352539 -6.1981543 5.11352539 -5.8581543 5.11352539 C-5.8581543 29.86352539 -5.8581543 54.61352539 -5.8581543 80.11352539 C35.0618457 80.44352539 75.9818457 80.77352539 118.1418457 81.11352539 C118.1418457 81.44352539 118.1418457 81.77352539 118.1418457 82.11352539 C101.74803679 82.16020053 85.35424935 82.19549217 68.96039009 82.21714973 C61.34881497 82.22747201 53.73728108 82.24155044 46.12573242 82.2644043 C39.49321302 82.28430914 32.86072348 82.2972349 26.22817504 82.30170238 C22.71474315 82.30431471 19.20139667 82.3104744 15.6879921 82.3249855 C11.77041242 82.34103541 7.85291709 82.34150695 3.93530273 82.34057617 C2.76430023 82.34776672 1.59329773 82.35495728 0.3868103 82.36236572 C-1.20758881 82.35824173 -1.20758881 82.35824173 -2.834198 82.35403442 C-4.22518361 82.3567998 -4.22518361 82.3567998 -5.64426994 82.35962105 C-7.8581543 82.11352539 -7.8581543 82.11352539 -9.8581543 80.11352539 C-10.0459618 77.58376004 -10.11007336 75.16445134 -10.08520508 72.63452148 C-10.08549713 71.86369736 -10.08578918 71.09287323 -10.08609009 70.2986908 C-10.08469404 67.74466794 -10.06912009 65.19093494 -10.0534668 62.63696289 C-10.04973764 60.86862345 -10.04689021 59.10028194 -10.04489136 57.3319397 C-10.03724722 52.67283444 -10.01759208 48.01385345 -9.9954834 43.35479736 C-9.97504174 38.60251548 -9.96589324 33.85021355 -9.95581055 29.09790039 C-9.93434689 19.76972073 -9.90020158 10.44163338 -9.8581543 1.11352539 C-6.37708915 -0.04682966 -3.673431 -0.00650165 0 0 Z " fill="#E7F5FD" transform="translate(114.858154296875,118.886474609375)"/>
<path d="M0 0 C4.29 0 8.58 0 13 0 C16.7778032 5.03707093 16.48535165 7.87774106 16.4375 13.9375 C16.4674707 15.27844727 16.4674707 15.27844727 16.49804688 16.64648438 C16.49513937 20.56288913 16.21201729 23.48065491 14.72265625 27.12890625 C12 29 12 29 0 29 C0 19.43 0 9.86 0 0 Z " fill="#0D1030" transform="translate(147,263)"/>
<path d="M0 0 C0.94793427 -0.0159874 1.89586853 -0.03197479 2.87252808 -0.04844666 C3.89959869 -0.05380936 4.92666931 -0.05917206 5.98486328 -0.06469727 C7.56450363 -0.07823997 7.56450363 -0.07823997 9.17605591 -0.09205627 C11.40705512 -0.10658351 13.63809717 -0.11545162 15.86914062 -0.11914062 C19.28474705 -0.13103239 22.69854497 -0.18019182 26.11376953 -0.23071289 C28.27912527 -0.24017712 30.44449214 -0.24741215 32.60986328 -0.25219727 C33.63288544 -0.27172958 34.65590759 -0.2912619 35.70993042 -0.31138611 C42.79422054 -0.26626491 42.79422054 -0.26626491 46.10644531 2.71630859 C47.43017578 5.30639648 47.43017578 5.30639648 47.43017578 7.30639648 C29.28017578 7.30639648 11.13017578 7.30639648 -7.56982422 7.30639648 C-6.37003737 1.30746223 -5.82754029 0.07414879 0 0 Z " fill="#EAF5FB" transform="translate(150.56982421875,220.693603515625)"/>
<path d="M0 0 C1.4540625 0.0309375 1.4540625 0.0309375 2.9375 0.0625 C4.64963941 5.57856654 5.69361162 11.04459521 6.5625 16.75 C6.6965625 17.59111328 6.830625 18.43222656 6.96875 19.29882812 C7.54005159 22.97439601 7.9375 26.32355749 7.9375 30.0625 C6.2875 30.0625 4.6375 30.0625 2.9375 30.0625 C2.9375 29.0725 2.9375 28.0825 2.9375 27.0625 C0.9575 27.0625 -1.0225 27.0625 -3.0625 27.0625 C-3.0625 28.0525 -3.0625 29.0425 -3.0625 30.0625 C-4.7125 30.0625 -6.3625 30.0625 -8.0625 30.0625 C-4.44588104 0.09073227 -4.44588104 0.09073227 0 0 Z " fill="#0E1132" transform="translate(228.0625,261.9375)"/>
<path d="M0 0 C2.84248268 2.550946 3.91018797 3.9896147 4.25 7.8125 C4.1675 8.534375 4.085 9.25625 4 10 C2.02 10 0.04 10 -2 10 C-2 8.35 -2 6.7 -2 5 C-3.65 5.33 -5.3 5.66 -7 6 C-7 11.94 -7 17.88 -7 24 C-5.35 23.67 -3.7 23.34 -2 23 C-1.67 21.35 -1.34 19.7 -1 18 C-1.99 18 -2.98 18 -4 18 C-4 16.68 -4 15.36 -4 14 C-1.36 14 1.28 14 4 14 C4.48929804 17.99593397 4.77755781 21.50968086 2.875 25.15625 C0.43632949 28.25539377 -1.2269353 29.77912437 -5.0625 30.875 C-8.62413973 29.81408604 -9.89955947 28.12690726 -11.95483398 25.10351562 C-13.79024343 21.40954511 -13.64688044 17.86172675 -13.5 13.8125 C-13.50257813 13.01908203 -13.50515625 12.22566406 -13.5078125 11.40820312 C-13.44959092 7.94110794 -13.32139135 5.59513456 -11.65625 2.51171875 C-8.2504743 -0.59685482 -4.38436031 -0.46151161 0 0 Z " fill="#181B3B" transform="translate(188,263)"/>
<path d="M0 0 C5.61 0 11.22 0 17 0 C17 5.61 17 11.22 17 17 C11.39 17 5.78 17 0 17 C0 11.39 0 5.78 0 0 Z " fill="#5DB5F9" transform="translate(186,115)"/>
<path d="M0 0 C5.61 0 11.22 0 17 0 C17 5.61 17 11.22 17 17 C11.39 17 5.78 17 0 17 C0 11.39 0 5.78 0 0 Z " fill="#11229B" transform="translate(217,85)"/>
<path d="M0 0 C1.94140625 0.4140625 1.94140625 0.4140625 4.44140625 2.5390625 C6.1365167 5.78802419 6.27750444 7.80100692 5.94140625 11.4140625 C4.62140625 11.4140625 3.30140625 11.4140625 1.94140625 11.4140625 C1.61140625 9.7640625 1.28140625 8.1140625 0.94140625 6.4140625 C-0.70859375 6.4140625 -2.35859375 6.4140625 -4.05859375 6.4140625 C-3.75259273 9.62707318 -3.50959348 11.02203965 -1.02734375 13.1796875 C0.1946875 13.91445313 0.1946875 13.91445313 1.44140625 14.6640625 C2.25609375 15.16421875 3.07078125 15.664375 3.91015625 16.1796875 C4.58046875 16.58703125 5.25078125 16.994375 5.94140625 17.4140625 C6.94140625 18.4140625 6.94140625 18.4140625 7.31640625 21.1640625 C6.94140625 24.4140625 6.94140625 24.4140625 4.94140625 27.2890625 C0.91097918 30.14394834 -1.21583616 29.82446569 -6.05859375 29.4140625 C-6.71859375 28.0940625 -7.37859375 26.7740625 -8.05859375 25.4140625 C-8.71859375 25.4140625 -9.37859375 25.4140625 -10.05859375 25.4140625 C-10.05859375 23.4340625 -10.05859375 21.4540625 -10.05859375 19.4140625 C-8.40859375 19.4140625 -6.75859375 19.4140625 -5.05859375 19.4140625 C-4.72859375 20.7340625 -4.39859375 22.0540625 -4.05859375 23.4140625 C-2.40859375 23.7440625 -0.75859375 24.0740625 0.94140625 24.4140625 C0.98650986 22.03509247 0.98650986 22.03509247 -0.05859375 19.4140625 C-1.75923959 18.19199036 -3.47459907 17.29920404 -5.3671875 16.40625 C-7.05859375 15.4140625 -7.05859375 15.4140625 -9.05859375 12.4140625 C-9.359375 10.2578125 -9.359375 10.2578125 -9.37109375 7.9140625 C-9.38785156 7.140625 -9.40460938 6.3671875 -9.421875 5.5703125 C-8.53802621 0.32424228 -4.87296825 -0.19743149 0 0 Z " fill="#272946" transform="translate(112.05859375,262.5859375)"/>
<path d="M0 0 C1.2003463 -0.00065712 1.2003463 -0.00065712 2.42494202 -0.00132751 C5.0710588 0.0007632 7.71654268 0.02410723 10.36254883 0.04760742 C12.19671787 0.05320238 14.0308914 0.05747295 15.86506653 0.06047058 C20.69355641 0.07192727 25.52177574 0.10140152 30.35015869 0.13458252 C35.27677755 0.16526566 40.2034401 0.17897216 45.13012695 0.1940918 C54.79756356 0.22627044 64.46479932 0.27747674 74.13208008 0.34057617 C74.62708008 1.33057617 74.62708008 1.33057617 75.13208008 2.34057617 C74.12396774 2.34866302 73.11585541 2.35674988 72.07719421 2.36508179 C62.5861023 2.44249816 53.09515453 2.53022595 43.60425091 2.62810326 C38.72464032 2.67809257 33.84505166 2.72442235 28.96533203 2.76245117 C24.25792686 2.79927072 19.55070399 2.84562153 14.84345436 2.89863968 C13.04571537 2.91720137 11.24793728 2.93230274 9.45014 2.94392014 C6.9359703 2.96075231 4.42221974 2.98977963 1.90820312 3.02172852 C1.16157913 3.0238887 0.41495514 3.02604889 -0.35429382 3.02827454 C-4.06525153 3.08869308 -5.69816366 3.22740533 -8.86791992 5.34057617 C-9.12230745 8.26196807 -9.18347475 10.96702789 -9.11328125 13.88598633 C-9.10408157 14.77075653 -9.0948819 15.65552673 -9.08540344 16.56710815 C-9.06390418 18.4933338 -9.03571633 20.4194935 -9.00171852 22.34553909 C-8.9496449 25.39758908 -8.91868083 28.44916976 -8.89396667 31.5015564 C-8.82053748 40.18158483 -8.71428408 48.86098536 -8.58007812 57.5402832 C-8.49951697 62.84637627 -8.4485226 68.15209939 -8.41547203 73.45869064 C-8.3968906 75.47854604 -8.36693368 77.49833092 -8.32523537 79.51784134 C-8.26727283 82.35196346 -8.24685838 85.18416178 -8.234375 88.01879883 C-8.20809021 88.84716248 -8.18180542 89.67552612 -8.15472412 90.5289917 C-8.18716596 97.01493857 -10.56522694 100.59750389 -14.86791992 105.34057617 C-15.19791992 104.02057617 -15.52791992 102.70057617 -15.86791992 101.34057617 C-13.88791992 100.35057617 -13.88791992 100.35057617 -11.86791992 99.34057617 C-11.86205368 98.14454269 -11.85618744 96.94850922 -11.85014343 95.7162323 C-11.79299568 84.45918244 -11.7202759 73.20232724 -11.63220501 61.94547558 C-11.58742726 56.15783765 -11.54818751 50.37027132 -11.52148438 44.58251953 C-11.49552525 38.99975859 -11.45517547 33.41727211 -11.40473366 27.83468056 C-11.38801482 25.70201334 -11.3765319 23.5692986 -11.37030602 21.43657494 C-11.36071941 18.45530619 -11.33272561 15.47474764 -11.30029297 12.49365234 C-11.30172806 11.60676727 -11.30316315 10.7198822 -11.30464172 9.80612183 C-11.29210358 8.99423904 -11.27956543 8.18235626 -11.26664734 7.34587097 C-11.26203837 6.64069934 -11.25742941 5.93552771 -11.25268078 5.20898724 C-10.04477597 -0.65663727 -4.9169941 -0.07015294 0 0 Z " fill="#D8F1FC" transform="translate(103.867919921875,109.659423828125)"/>
<path d="M0 0 C2.9375 1.5625 2.9375 1.5625 5 4 C5.3125 7.75 5.3125 7.75 5 11 C3.68 11 2.36 11 1 11 C0.67 9.35 0.34 7.7 0 6 C-1.65 6 -3.3 6 -5 6 C-4.85190969 8.41372911 -4.85190969 8.41372911 -4 11 C-1.93573333 12.60046282 -1.93573333 12.60046282 0.5625 13.8125 C4.77651561 16.41349528 4.77651561 16.41349528 5.76953125 19.01953125 C5.95248435 22.67181726 5.24331359 24.70507444 2.9375 27.5 C-0.75398325 29.38501272 -2.90864229 29.6694949 -7 29 C-9.84248268 26.449054 -10.91018797 25.0103853 -11.25 21.1875 C-11.1675 20.465625 -11.085 19.74375 -11 19 C-9.35 19 -7.7 19 -6 19 C-5.67 20.32 -5.34 21.64 -5 23 C-3.02 23 -1.04 23 1 23 C0.67 21.35 0.34 19.7 0 18 C-0.7425 17.87625 -1.485 17.7525 -2.25 17.625 C-4.90823188 17.02085639 -6.76079839 16.54427697 -9 15 C-11.02975509 11.34644083 -11.52821509 8.13768485 -11 4 C-8.05127687 -0.48205916 -5.14006617 -0.7214128 0 0 Z " fill="#1B1E3D" transform="translate(132,263)"/>
<path d="M0 0 C5.61 0 11.22 0 17 0 C17 5.28 17 10.56 17 16 C11.39 16 5.78 16 0 16 C0 10.72 0 5.44 0 0 Z " fill="#142296" transform="translate(192,137)"/>
<path d="M0 0 C1.65 0 3.3 0 5 0 C6 1 6 1 6.11352539 3.31665039 C6.10828857 4.31688232 6.10305176 5.31711426 6.09765625 6.34765625 C6.09282227 7.96704102 6.09282227 7.96704102 6.08789062 9.61914062 C6.07951172 10.75544922 6.07113281 11.89175781 6.0625 13.0625 C6.05798828 14.20267578 6.05347656 15.34285156 6.04882812 16.51757812 C6.03699747 19.34510351 6.0205141 22.1725264 6 25 C8.97 25 11.94 25 15 25 C15 26.98 15 28.96 15 31 C10.05 31 5.1 31 0 31 C0 20.77 0 10.54 0 0 Z " fill="#333652" transform="translate(239,262)"/>
<path d="M0 0 C0.98871094 0.09796875 1.97742188 0.1959375 2.99609375 0.296875 C3.98738281 0.38453125 4.97867188 0.4721875 6 0.5625 C6.80308594 0.72234375 7.60617188 0.8821875 8.43359375 1.046875 C8.76359375 1.706875 9.09359375 2.366875 9.43359375 3.046875 C8.81871094 3.01207031 8.20382813 2.97726562 7.5703125 2.94140625 C6.35794922 2.90080078 6.35794922 2.90080078 5.12109375 2.859375 C4.32058594 2.82457031 3.52007812 2.78976562 2.6953125 2.75390625 C0.39869592 2.88847948 0.39869592 2.88847948 -1.37890625 4.203125 C-3.08760008 6.85609701 -2.65327824 8.64831868 -2.25390625 11.734375 C-2.13402344 12.72824219 -2.01414062 13.72210938 -1.890625 14.74609375 C-1.78363281 15.50535156 -1.67664063 16.26460938 -1.56640625 17.046875 C1.40359375 18.036875 4.37359375 19.026875 7.43359375 20.046875 C7.76359375 21.696875 8.09359375 23.346875 8.43359375 25.046875 C6.45359375 25.376875 4.47359375 25.706875 2.43359375 26.046875 C1.93859375 23.571875 1.93859375 23.571875 1.43359375 21.046875 C-0.21640625 21.046875 -1.86640625 21.046875 -3.56640625 21.046875 C-3.56640625 22.366875 -3.56640625 23.686875 -3.56640625 25.046875 C-4.22640625 25.046875 -4.88640625 25.046875 -5.56640625 25.046875 C-5.71078125 24.180625 -5.85515625 23.314375 -6.00390625 22.421875 C-8.00767414 18.09373636 -10.48498327 16.89182049 -14.5703125 14.63671875 C-16.56640625 13.046875 -16.56640625 13.046875 -17.40625 10.42578125 C-17.45910156 9.64074219 -17.51195313 8.85570312 -17.56640625 8.046875 C-16.56640625 7.046875 -16.56640625 7.046875 -14.06640625 6.921875 C-11.56640625 7.046875 -11.56640625 7.046875 -10.56640625 8.046875 C-10.52576793 9.71304615 -10.52368525 11.38075595 -10.56640625 13.046875 C-9.24640625 13.046875 -7.92640625 13.046875 -6.56640625 13.046875 C-6.85515625 11.78875 -7.14390625 10.530625 -7.44140625 9.234375 C-7.68503906 8.17283203 -7.68503906 8.17283203 -7.93359375 7.08984375 C-8.54648348 4.76944526 -8.54648348 4.76944526 -10.56640625 2.046875 C-9.61765625 2.088125 -8.66890625 2.129375 -7.69140625 2.171875 C-3.8690341 2.01898011 -3.63966511 0.0664779 0 0 Z " fill="#EEF0F6" transform="translate(124.56640625,260.953125)"/>
<path d="M0 0 C4.95 0 9.9 0 15 0 C15 4.95 15 9.9 15 15 C10.05 15 5.1 15 0 15 C0 10.05 0 5.1 0 0 Z " fill="#11229D" transform="translate(158,162)"/>
<path d="M0 0 C0.66 0.33 1.32 0.66 2 1 C2.29328516 12.98686702 2.54798168 24.97387961 2.75383663 36.96258545 C2.85063509 42.52986483 2.96056421 48.09623034 3.10083008 53.66259766 C3.23578247 59.03749121 3.335813 64.41201848 3.41195869 69.78805542 C3.44704269 71.83593708 3.49457257 73.88364562 3.55491447 75.93093872 C4.0740463 94.00382998 4.0740463 94.00382998 -0.34155273 99.1328125 C-2.19212341 100.69970703 -2.19212341 100.69970703 -4 102 C-5.0144049 102.98538455 -6.01925675 103.98110713 -7 105 C-7.66 104.34 -8.32 103.68 -9 103 C-8.36050919 102.45188156 -7.72101837 101.90376312 -7.06214905 101.33903503 C-0.12465213 94.38253856 0.96878103 89.10316339 1.04307461 79.56555462 C1.01897433 76.64268477 0.94972653 73.7228611 0.87890625 70.80078125 C0.86209426 68.75386875 0.84929534 66.70691973 0.84031677 64.65995789 C0.80615602 59.30459413 0.71792923 53.95147085 0.61798096 48.59698486 C0.52546979 43.12030335 0.48471463 37.64325534 0.43945312 32.16601562 C0.3432896 21.44303269 0.18993703 10.72170354 0 0 Z " fill="#6AABDB" transform="translate(94,115)"/>
<path d="M0 0 C4.62 0 9.24 0 14 0 C14 4.62 14 9.24 14 14 C9.38 14 4.76 14 0 14 C0 9.38 0 4.76 0 0 Z " fill="#223CFD" transform="translate(182,161)"/>
<path d="M0 0 C5.28 0 10.56 0 16 0 C16 1.32 16 2.64 16 4 C14.02 4 12.04 4 10 4 C10 12.25 10 20.5 10 29 C8.35 29 6.7 29 5 29 C5 20.75 5 12.5 5 4 C3.35 4 1.7 4 0 4 C0 2.68 0 1.36 0 0 Z " fill="#0E1133" transform="translate(203,263)"/>
<path d="M0 0 C27.06 0 54.12 0 82 0 C82 1.65 82 3.3 82 5 C58.24 5 34.48 5 10 5 C10 4.67 10 4.34 10 4 C32.77 4 55.54 4 79 4 C79 3.01 79 2.02 79 1 C69.01219007 1.10746242 59.02445308 1.22008793 49.03677654 1.33933926 C44.39929777 1.39454705 39.76181267 1.44796368 35.12426758 1.49731445 C30.65033756 1.54498955 26.17648447 1.59733359 21.70264626 1.65294075 C19.99420902 1.67335003 18.2857507 1.69206548 16.57727623 1.70907402 C14.18775168 1.73314958 11.79837243 1.76319985 9.40893555 1.79467773 C8.69971451 1.8004332 7.99049347 1.80618866 7.25978088 1.81211853 C4.23700348 1.85750011 1.89179244 2.03606919 -1 3 C-0.67 2.01 -0.34 1.02 0 0 Z " fill="#4897CB" transform="translate(96,113)"/>
<path d="M0 0 C3.3 0 6.6 0 10 0 C10 0.99 10 1.98 10 3 C8.35 3.66 6.7 4.32 5 5 C4.67 11.6 4.34 18.2 4 25 C6.31 25 8.62 25 11 25 C11 25.99 11 26.98 11 28 C9 29 9 29 0 29 C0 19.43 0 9.86 0 0 Z " fill="#080B2C" transform="translate(147,263)"/>
<path d="M0 0 C0.33 0.66 0.66 1.32 1 2 C11.395 1.505 11.395 1.505 22 1 C22 1.66 22 2.32 22 3 C23.32 2.67 24.64 2.34 26 2 C26 6.62 26 11.24 26 16 C25.34 15.67 24.68 15.34 24 15 C24 16.65 24 18.3 24 20 C23.34 19.01 22.68 18.02 22 17 C21.34 16.34 20.68 15.68 20 15 C19.01 15.99 18.02 16.98 17 18 C17 13.05 17 8.1 17 3 C12.05 3 7.1 3 2 3 C2 7.95 2 12.9 2 18 C-1 15 -1 15 -1.328125 11.6796875 C-1.30234375 10.42414063 -1.2765625 9.16859375 -1.25 7.875 C-1.23453125 6.61429688 -1.2190625 5.35359375 -1.203125 4.0546875 C-1 1 -1 1 0 0 Z " fill="#EDF1FD" transform="translate(156,159)"/>
<path d="M0 0 C3.09614703 5.9711407 4.44482188 11.16125005 5.125 17.8125 C5.21136719 18.60076172 5.29773438 19.38902344 5.38671875 20.20117188 C5.59751064 22.13343084 5.79962896 24.06663263 6 26 C4.35 26 2.7 26 1 26 C1 25.01 1 24.02 1 23 C-0.98 23 -2.96 23 -5 23 C-5 23.99 -5 24.98 -5 26 C-6.65 26 -8.3 26 -10 26 C-9.88590407 24.54077307 -9.75834456 23.08259402 -9.625 21.625 C-9.55539063 20.81289063 -9.48578125 20.00078125 -9.4140625 19.1640625 C-9 17 -9 17 -7 15 C-6.71125 15.969375 -6.4225 16.93875 -6.125 17.9375 C-5.35785318 21.10664203 -5.35785318 21.10664203 -3 22 C-3 21.01 -3 20.02 -3 19 C-2.01 19 -1.02 19 0 19 C-0.165 18.05125 -0.33 17.1025 -0.5 16.125 C-2.18322734 4.36645469 -2.18322734 4.36645469 0 0 Z " fill="#0D1131" transform="translate(230,266)"/>
<path d="M0 0 C1.65 0 3.3 0 5 0 C5 9.9 5 19.8 5 30 C3.35 30 1.7 30 0 30 C0 20.1 0 10.2 0 0 Z " fill="#0A0F2E" transform="translate(195,263)"/>
<path d="M0 0 C9.9 0 19.8 0 30 0 C30 1.65 30 3.3 30 5 C20.1 5 10.2 5 0 5 C0 3.35 0 1.7 0 0 Z " fill="#D2ECF7" transform="translate(155,230)"/>
<path d="M0 0 C1.65 0 3.3 0 5 0 C5 9.57 5 19.14 5 29 C3.35 29 1.7 29 0 29 C0 19.43 0 9.86 0 0 Z " fill="#070B2A" transform="translate(167,263)"/>
<path d="M0 0 C3.3 0 6.6 0 10 0 C10 10.23 10 20.46 10 31 C9.34 31.33 8.68 31.66 8 32 C8 22.1 8 12.2 8 2 C6.35 2.33 4.7 2.66 3 3 C2.970271 4.02154175 2.970271 4.02154175 2.93994141 5.0637207 C2.84473017 8.14703917 2.73503534 11.22967649 2.625 14.3125 C2.5940625 15.38435547 2.563125 16.45621094 2.53125 17.56054688 C2.49257812 18.58857422 2.45390625 19.61660156 2.4140625 20.67578125 C2.3826416 21.62364502 2.3512207 22.57150879 2.31884766 23.5480957 C2 26 2 26 0 29 C0 19.43 0 9.86 0 0 Z " fill="#4F98CB" transform="translate(235,173)"/>
<path d="M0 0 C0.33 0 0.66 0 1 0 C1.33 1.98 1.66 3.96 2 6 C2.33 6 2.66 6 3 6 C3.22511584 7.53930561 3.42924045 9.08168633 3.625 10.625 C3.79902344 11.91277344 3.79902344 11.91277344 3.9765625 13.2265625 C4 16 4 16 2 22 C-5.92 22 -13.84 22 -22 22 C-21.67 21.34 -21.34 20.68 -21 20 C-19.865625 20.020625 -18.73125 20.04125 -17.5625 20.0625 C-14.18424326 20.41577477 -14.18424326 20.41577477 -13 19 C-14.32 18.34 -15.64 17.68 -17 17 C-11.39 17 -5.78 17 0 17 C0 11.39 0 5.78 0 0 Z " fill="#F1F5FB" transform="translate(234,85)"/>
<path d="M0 0 C1.94140625 0.4140625 1.94140625 0.4140625 4.44140625 2.5390625 C6.1365167 5.78802419 6.27750444 7.80100692 5.94140625 11.4140625 C4.62140625 11.4140625 3.30140625 11.4140625 1.94140625 11.4140625 C1.61140625 9.7640625 1.28140625 8.1140625 0.94140625 6.4140625 C-0.70859375 6.4140625 -2.35859375 6.4140625 -4.05859375 6.4140625 C-3.72859375 8.7240625 -3.39859375 11.0340625 -3.05859375 13.4140625 C-4.04859375 13.7440625 -5.03859375 14.0740625 -6.05859375 14.4140625 C-7.04859375 13.7540625 -8.03859375 13.0940625 -9.05859375 12.4140625 C-9.45703125 10.35546875 -9.45703125 10.35546875 -9.43359375 7.9765625 C-9.44132812 7.19410156 -9.4490625 6.41164063 -9.45703125 5.60546875 C-8.50159733 0.3505822 -4.93438188 -0.19991971 0 0 Z " fill="#0E1030" transform="translate(112.05859375,262.5859375)"/>
<path d="M0 0 C0.33 0.66 0.66 1.32 1 2 C2.98 2 4.96 2 7 2 C7 2.33 7 2.66 7 3 C5.35 3 3.7 3 2 3 C2 11.25 2 19.5 2 28 C1.34 28 0.68 28 0 28 C0 29.65 0 31.3 0 33 C-0.66 31.68 -1.32 30.36 -2 29 C-2.66 29.99 -3.32 30.98 -4 32 C-4.66 31.67 -5.32 31.34 -6 31 C-5.514104 30.4541626 -5.02820801 29.9083252 -4.52758789 29.34594727 C-2.67557649 26.50177633 -2.60556961 24.83557265 -2.55859375 21.46484375 C-2.53216797 20.40845703 -2.50574219 19.35207031 -2.47851562 18.26367188 C-2.45821289 16.6172168 -2.45821289 16.6172168 -2.4375 14.9375 C-2.40308192 12.75896271 -2.36048712 10.58053484 -2.30859375 8.40234375 C-2.29626709 7.43804443 -2.28394043 6.47374512 -2.27124023 5.48022461 C-2 3 -2 3 0 0 Z " fill="#E8EBF5" transform="translate(165,260)"/>
<path d="M0 0 C1.98 0 3.96 0 6 0 C6.02683987 2.97922593 6.04676037 5.95821295 6.0625 8.9375 C6.07087891 9.78763672 6.07925781 10.63777344 6.08789062 11.51367188 C6.09111328 12.32255859 6.09433594 13.13144531 6.09765625 13.96484375 C6.10289307 14.7137085 6.10812988 15.46257324 6.11352539 16.23413086 C6 18 6 18 5 19 C3.35 19 1.7 19 0 19 C0 12.73 0 6.46 0 0 Z " fill="#F0F2F9" transform="translate(152,268)"/>
<path d="M0 0 C5.61 0 11.22 0 17 0 C17 5.61 17 11.22 17 17 C11.39 17 5.78 17 0 17 C0 11.39 0 5.78 0 0 Z M1 2 C1 6.29 1 10.58 1 15 C5.62 15 10.24 15 15 15 C15 10.71 15 6.42 15 2 C10.38 2 5.76 2 1 2 Z " fill="#76B8EA" transform="translate(186,115)"/>
<path d="M0 0 C2.5 0.125 2.5 0.125 3.5 1.125 C3.54063832 2.79117115 3.542721 4.45888095 3.5 6.125 C4.82 6.125 6.14 6.125 7.5 6.125 C7.5 4.475 7.5 2.825 7.5 1.125 C7.83 1.125 8.16 1.125 8.5 1.125 C8.83 2.775 9.16 4.425 9.5 6.125 C9.83 6.125 10.16 6.125 10.5 6.125 C10.5 8.435 10.5 10.745 10.5 13.125 C10.17 13.125 9.84 13.125 9.5 13.125 C9.17 15.435 8.84 17.745 8.5 20.125 C8.17 20.125 7.84 20.125 7.5 20.125 C7.520625 18.92875 7.54125 17.7325 7.5625 16.5 C7.22217229 13.43705059 6.87124588 12.43354024 4.46484375 10.43359375 C2.8499197 9.45337836 1.20475034 8.52100058 -0.46875 7.64453125 C-2.5 6.125 -2.5 6.125 -3.34375 3.51171875 C-3.3953125 2.72410156 -3.446875 1.93648438 -3.5 1.125 C-2.5 0.125 -2.5 0.125 0 0 Z " fill="#C6C9D5" transform="translate(129.5,267.875)"/>
<path d="M0 0 C4.62 0 9.24 0 14 0 C14 4.62 14 9.24 14 14 C9.38 14 4.76 14 0 14 C0 9.38 0 4.76 0 0 Z M1 2 C1 4.97 1 7.94 1 11 C4.63 11 8.26 11 12 11 C12 8.03 12 5.06 12 2 C8.37 2 4.74 2 1 2 Z " fill="#4354DF" transform="translate(182,161)"/>
<path d="M0 0 C5.61 0 11.22 0 17 0 C17 5.61 17 11.22 17 17 C11.39 17 5.78 17 0 17 C0 11.39 0 5.78 0 0 Z M2 2 C2 6.62 2 11.24 2 16 C6.62 16 11.24 16 16 16 C16.020625 13.875625 16.04125 11.75125 16.0625 9.5625 C16.07410156 8.36753906 16.08570313 7.17257813 16.09765625 5.94140625 C16.33901792 3.11126659 16.33901792 3.11126659 15 2 C12.81360547 1.92741054 10.62499611 1.91626217 8.4375 1.9375 C5.2509375 1.9684375 5.2509375 1.9684375 2 2 Z " fill="#2F3B93" transform="translate(217,85)"/>
<path d="M0 0 C4.95 0 9.9 0 15 0 C15 4.95 15 9.9 15 15 C10.05 15 5.1 15 0 15 C0 10.05 0 5.1 0 0 Z M2 1 C2 4.96 2 8.92 2 13 C5.63 13 9.26 13 13 13 C13 9.04 13 5.08 13 1 C9.37 1 5.74 1 2 1 Z " fill="#212C8F" transform="translate(158,162)"/>
<path d="M0 0 C0.33 0 0.66 0 1 0 C1.0515625 0.66386719 1.103125 1.32773437 1.15625 2.01171875 C1.72548036 7.44402139 1.72548036 7.44402139 4.9140625 11.6015625 C6.35973416 12.39336147 7.81797318 13.16273915 9.2890625 13.90625 C10.13597656 14.44765625 10.13597656 14.44765625 11 15 C11.5 17.8125 11.5 17.8125 11 20 C9.35 20 7.7 20 6 20 C5.67 18.35 5.34 16.7 5 15 C2.69 14.67 0.38 14.34 -2 14 C-2 15.98 -2 17.96 -2 20 C-2.33 20 -2.66 20 -3 20 C-2.67 15.71 -2.34 11.42 -2 7 C-1.67 7 -1.34 7 -1 7 C-0.67 4.69 -0.34 2.38 0 0 Z " fill="#DADAE5" transform="translate(102,267)"/>
<path d="M0 0 C-0.33 5.94 -0.66 11.88 -1 18 C-1.33 18 -1.66 18 -2 18 C-2 14.04 -2 10.08 -2 6 C-2.99 6 -3.98 6 -5 6 C-5 10.95 -5 15.9 -5 21 C-10.94 21 -16.88 21 -23 21 C-23 20.67 -23 20.34 -23 20 C-17.39 20 -11.78 20 -6 20 C-6 14.72 -6 9.44 -6 4 C-11.61 4 -17.22 4 -23 4 C-23 3.67 -23 3.34 -23 3 C-17.06 3 -11.12 3 -5 3 C-5 2.34 -5 1.68 -5 1 C-3 0 -3 0 0 0 Z " fill="#BDC2DF" transform="translate(215,133)"/>
<path d="M0 0 C1.2065625 0.0309375 1.2065625 0.0309375 2.4375 0.0625 C0.4575 1.0525 0.4575 1.0525 -1.5625 2.0625 C-1.5625 4.7025 -1.5625 7.3425 -1.5625 10.0625 C-1.2325 9.4025 -0.9025 8.7425 -0.5625 8.0625 C2.4075 8.0625 5.3775 8.0625 8.4375 8.0625 C8.4375 8.3925 8.4375 8.7225 8.4375 9.0625 C5.7975 9.0625 3.1575 9.0625 0.4375 9.0625 C0.4375 10.3825 0.4375 11.7025 0.4375 13.0625 C1.4275 13.0625 2.4175 13.0625 3.4375 13.0625 C3.480221 14.72861905 3.47813832 16.39632885 3.4375 18.0625 C2.4375 19.0625 2.4375 19.0625 -0.125 19.125 C-0.929375 19.104375 -1.73375 19.08375 -2.5625 19.0625 C-4.14946844 15.88856311 -3.7056447 12.48075795 -3.6875 9 C-3.69136719 8.25427734 -3.69523438 7.50855469 -3.69921875 6.74023438 C-3.68713827 0.0899302 -3.68713827 0.0899302 0 0 Z " fill="#BABECC" transform="translate(183.5625,267.9375)"/>
<path d="M0 0 C0.99 0.33 1.98 0.66 3 1 C3 6.94 3 12.88 3 19 C1.68 19 0.36 19 -1 19 C-1.02690104 16.20826945 -1.04679053 13.41679652 -1.0625 10.625 C-1.07087891 9.8309375 -1.07925781 9.036875 -1.08789062 8.21875 C-1.11328125 2.2265625 -1.11328125 2.2265625 0 0 Z " fill="#060B2C" transform="translate(210,273)"/>
<path d="M0 0 C0.33 0 0.66 0 1 0 C1 1.65 1 3.3 1 5 C17.5 5 34 5 51 5 C51.33 4.34 51.66 3.68 52 3 C52.495 4.485 52.495 4.485 53 6 C34.85 6 16.7 6 -2 6 C-1 1 -1 1 0 0 Z " fill="#ABD8F0" transform="translate(145,222)"/>
<path d="M0 0 C0.66 0.33 1.32 0.66 2 1 C2 3.64 2 6.28 2 9 C0.68 9 -0.64 9 -2 9 C-1.67 9.99 -1.34 10.98 -1 12 C-8.15291751 9.93360161 -8.15291751 9.93360161 -10 7 C-9.6875 4.3125 -9.6875 4.3125 -9 2 C-7.33388095 1.957279 -5.66617115 1.95936168 -4 2 C-3 3 -3 3 -2.9375 5.5625 C-2.958125 6.366875 -2.97875 7.17125 -3 8 C-1.68 8 -0.36 8 1 8 C0.67 5.36 0.34 2.72 0 0 Z " fill="#A5A8BA" transform="translate(117,266)"/>
<path d="M0 0 C0.99 0 1.98 0 3 0 C3.33 0.99 3.66 1.98 4 3 C3.67 3.66 3.34 4.32 3 5 C2.86094858 6.43513247 2.77476567 7.87564161 2.71875 9.31640625 C2.68136719 10.16267578 2.64398438 11.00894531 2.60546875 11.88085938 C2.53500285 13.67252002 2.46469102 15.46418672 2.39453125 17.25585938 C2.35714844 18.10083984 2.31976563 18.94582031 2.28125 19.81640625 C2.23581055 20.98345093 2.23581055 20.98345093 2.18945312 22.17407227 C2 24 2 24 1 25 C-1.31 25 -3.62 25 -6 25 C-6 18.4 -6 11.8 -6 5 C-4.02 4.01 -2.04 3.02 0 2 C0 1.34 0 0.68 0 0 Z M-5 5 C-5 11.27 -5 17.54 -5 24 C-3.35 24 -1.7 24 0 24 C1.19341752 23.02667739 1.19341752 23.02667739 1.11352539 21.23413086 C1.10828857 20.48526611 1.10305176 19.73640137 1.09765625 18.96484375 C1.09443359 18.15595703 1.09121094 17.34707031 1.08789062 16.51367188 C1.07951172 15.66353516 1.07113281 14.81339844 1.0625 13.9375 C1.05573242 12.65649414 1.05573242 12.65649414 1.04882812 11.34960938 C1.03700373 9.23304337 1.01906769 7.11651315 1 5 C-0.98 5 -2.96 5 -5 5 Z " fill="#3E425D" transform="translate(157,263)"/>
<path d="M0 0 C0.98871094 0.09796875 1.97742188 0.1959375 2.99609375 0.296875 C3.98738281 0.38453125 4.97867188 0.4721875 6 0.5625 C6.80308594 0.72234375 7.60617188 0.8821875 8.43359375 1.046875 C8.76359375 1.706875 9.09359375 2.366875 9.43359375 3.046875 C8.81871094 3.01207031 8.20382813 2.97726562 7.5703125 2.94140625 C6.35794922 2.90080078 6.35794922 2.90080078 5.12109375 2.859375 C4.32058594 2.82457031 3.52007812 2.78976562 2.6953125 2.75390625 C0.39338236 2.88496168 0.39338236 2.88496168 -1.37890625 4.234375 C-3.03090792 6.75585123 -2.67471 8.28874873 -2.25390625 11.234375 C-2.13402344 12.13542969 -2.01414062 13.03648437 -1.890625 13.96484375 C-1.78363281 14.65191406 -1.67664063 15.33898437 -1.56640625 16.046875 C-2.22640625 16.046875 -2.88640625 16.046875 -3.56640625 16.046875 C-6.14955019 13.46373106 -5.81115892 11.52349826 -6.1484375 8.0234375 C-6.75578195 5.15132264 -8.29775999 3.8032463 -10.56640625 2.046875 C-9.61765625 2.088125 -8.66890625 2.129375 -7.69140625 2.171875 C-3.8690341 2.01898011 -3.63966511 0.0664779 0 0 Z " fill="#DDDFEA" transform="translate(124.56640625,260.953125)"/>
<path d="M0 0 C1.65 0 3.3 0 5 0 C5.33 1.32 5.66 2.64 6 4 C7.65 4 9.3 4 11 4 C11 4.66 11 5.32 11 6 C10.01 6.33 9.02 6.66 8 7 C8.99 7.99 9.98 8.98 11 10 C7.75 10.3125 7.75 10.3125 4 10 C1.15751732 7.449054 0.08981203 6.0103853 -0.25 2.1875 C-0.1675 1.465625 -0.085 0.74375 0 0 Z " fill="#242845" transform="translate(121,282)"/>
<path d="M0 0 C16.17 0 32.34 0 49 0 C49.66 1.32 50.32 2.64 51 4 C50.67 4.99 50.34 5.98 50 7 C47 3.25 47 3.25 47 1 C31.49 1 15.98 1 0 1 C0 0.67 0 0.34 0 0 Z " fill="#4B97CB" transform="translate(147,219)"/>
<path d="M0 0 C3.08367694 -0.3978938 5.04500181 -0.61903124 8 0 C10.5 2.125 10.5 2.125 12 5 C12.25 8.3125 12.25 8.3125 12 11 C10.68 11 9.36 11 8 11 C7.9175 10.21625 7.835 9.4325 7.75 8.625 C7.27193661 5.85250896 7.27193661 5.85250896 4.9375 4.6875 C4.298125 4.460625 3.65875 4.23375 3 4 C3.66 4 4.32 4 5 4 C5 3.01 5 2.02 5 1 C2.69 1.66 0.38 2.32 -2 3 C-1.34 2.01 -0.68 1.02 0 0 Z " fill="#0F1032" transform="translate(106,263)"/>
<path d="M0 0 C0.33 0 0.66 0 1 0 C1.33 1.98 1.66 3.96 2 6 C2.33 6 2.66 6 3 6 C3.85330338 11.83475015 4.48351814 16.44860651 2 22 C1.67 20.68 1.34 19.36 1 18 C-4.94 18 -10.88 18 -17 18 C-17 17.67 -17 17.34 -17 17 C-11.39 17 -5.78 17 0 17 C0 11.39 0 5.78 0 0 Z " fill="#D2D7F1" transform="translate(234,85)"/>
<path d="M0 0 C2.64 0 5.28 0 8 0 C8 2.97 8 5.94 8 9 C6.35 9.33 4.7 9.66 3 10 C3 8.02 3 6.04 3 4 C2.01 4 1.02 4 0 4 C0 2.68 0 1.36 0 0 Z " fill="#171B37" transform="translate(184,277)"/>
<path d="M0 0 C0.33 0.66 0.66 1.32 1 2 C2.093125 1.835 3.18625 1.67 4.3125 1.5 C8 1 8 1 11 1 C9.7156759 3.86503068 8.58401213 6.15427705 6 8 C2.9375 8.375 2.9375 8.375 0 8 C-0.66 7.01 -1.32 6.02 -2 5 C-0.35 5 1.3 5 3 5 C2.01 4.67 1.02 4.34 0 4 C0 2.68 0 1.36 0 0 Z " fill="#2F304D" transform="translate(180,285)"/>
<path d="M0 0 C0.33 0.66 0.66 1.32 1 2 C6.28 2 11.56 2 17 2 C17 2.33 17 2.66 17 3 C12.05 3 7.1 3 2 3 C2 7.95 2 12.9 2 18 C-1 15 -1 15 -1.328125 11.6796875 C-1.30234375 10.42414063 -1.2765625 9.16859375 -1.25 7.875 C-1.23453125 6.61429688 -1.2190625 5.35359375 -1.203125 4.0546875 C-1 1 -1 1 0 0 Z " fill="#B8BEE1" transform="translate(156,159)"/>
<path d="M0 0 C3.93846154 3.32307692 3.93846154 3.32307692 4.25 6.75 C4.1675 7.4925 4.085 8.235 4 9 C2.02 9 0.04 9 -2 9 C-2 7.35 -2 5.7 -2 4 C-3.32 3.67 -4.64 3.34 -6 3 C-4.02 2.67 -2.04 2.34 0 2 C0 1.34 0 0.68 0 0 Z " fill="#343650" transform="translate(188,264)"/>
<path d="M0 0 C0 0.66 0 1.32 0 2 C0.66 2 1.32 2 2 2 C1.67 3.32 1.34 4.64 1 6 C0.67 5.34 0.34 4.68 0 4 C-0.10957031 4.68707031 -0.21914062 5.37414062 -0.33203125 6.08203125 C-0.49058594 6.98308594 -0.64914063 7.88414062 -0.8125 8.8125 C-0.96332031 9.70582031 -1.11414063 10.59914062 -1.26953125 11.51953125 C-2 14 -2 14 -5 17 C-5 11.72 -5 6.44 -5 1 C-3 0 -3 0 0 0 Z " fill="#D7D9F1" transform="translate(178,160)"/>
<path d="M0 0 C0.33 0 0.66 0 1 0 C1 5.28 1 10.56 1 16 C1.99 15.67 2.98 15.34 4 15 C4 16.65 4 18.3 4 20 C3.34 20 2.68 20 2 20 C2 21.65 2 23.3 2 25 C1.34 23.68 0.68 22.36 0 21 C-0.66 21.99 -1.32 22.98 -2 24 C-2.66 23.67 -3.32 23.34 -4 23 C-3.51917969 22.54109375 -3.03835937 22.0821875 -2.54296875 21.609375 C-0.20598469 17.65720955 -0.42921637 13.76525629 -0.3125 9.25 C-0.27833984 8.36183594 -0.24417969 7.47367187 -0.20898438 6.55859375 C-0.12671286 4.37252197 -0.05749828 2.18684049 0 0 Z " fill="#C8CAD9" transform="translate(163,268)"/>
<path d="M0 0 C0.66 0 1.32 0 2 0 C2.2803173 3.0358892 2.29525605 4.55832931 0.57421875 7.1328125 C-0.04839844 7.79023438 -0.67101562 8.44765625 -1.3125 9.125 C-1.92738281 9.78757813 -2.54226562 10.45015625 -3.17578125 11.1328125 C-4.77248975 12.76713084 -6.37691318 14.39189552 -8 16 C-8.66 15.34 -9.32 14.68 -10 14 C-9.36191406 13.24074219 -8.72382812 12.48148438 -8.06640625 11.69921875 C-7.24011719 10.70535156 -6.41382812 9.71148437 -5.5625 8.6875 C-4.73878906 7.70136719 -3.91507812 6.71523437 -3.06640625 5.69921875 C-0.85878424 3.11899855 -0.85878424 3.11899855 0 0 Z " fill="#5CA3D4" transform="translate(95,204)"/>
<path d="M0 0 C0.66 0.33 1.32 0.66 2 1 C3.29411765 8.41176471 3.29411765 8.41176471 2 11 C1.9310528 12.37342831 1.91532292 13.75002102 1.9375 15.125 C1.958125 16.40375 1.97875 17.6825 2 19 C0.02 19 -1.96 19 -4 19 C-4 18.67 -4 18.34 -4 18 C-2.35 18 -0.7 18 1 18 C0.855625 17.43152344 0.71125 16.86304688 0.5625 16.27734375 C-2.2626832 4.5253664 -2.2626832 4.5253664 0 0 Z " fill="#CFD0DC" transform="translate(235,274)"/>
<path d="M0 0 C1.65 0 3.3 0 5 0 C5 2.31 5 4.62 5 7 C5.99 7.33 6.98 7.66 8 8 C2.58860759 8.36075949 2.58860759 8.36075949 0.0625 6.8125 C-1 5 -1 5 -0.6875 2.3125 C-0.460625 1.549375 -0.23375 0.78625 0 0 Z " fill="#E2E6EE" transform="translate(127,268)"/>
<path d="M0 0 C1.98 0 3.96 0 6 0 C8.42857143 7.42857143 8.42857143 7.42857143 7 11 C6.731875 10.38125 6.46375 9.7625 6.1875 9.125 C5.04443152 6.7004767 5.04443152 6.7004767 2 5 C1.01 5 0.02 5 -1 5 C-0.67 3.35 -0.34 1.7 0 0 Z " fill="#30324E" transform="translate(225,262)"/>
<path d="M0 0 C0 0.99 0 1.98 0 3 C-4.455 4.485 -4.455 4.485 -9 6 C-9.99 5.01 -10.98 4.02 -12 3 C-7.89542386 0.01485372 -5.02254631 -0.2954439 0 0 Z " fill="#1C1F3E" transform="translate(188,263)"/>
<path d="M0 0 C0.33 0 0.66 0 1 0 C1.66 1.98 2.32 3.96 3 6 C5.97 6.495 5.97 6.495 9 7 C9 7.33 9 7.66 9 8 C7.02 8 5.04 8 3 8 C3 8.99 3 9.98 3 11 C1.35 11 -0.3 11 -2 11 C-1.85892253 9.54119891 -1.71197585 8.08296449 -1.5625 6.625 C-1.48128906 5.81289063 -1.40007812 5.00078125 -1.31640625 4.1640625 C-1 2 -1 2 0 0 Z " fill="#171B38" transform="translate(222,281)"/>
<path d="M0 0 C7.92 0 15.84 0 24 0 C24 0.33 24 0.66 24 1 C18.72 1 13.44 1 8 1 C8 2.32 8 3.64 8 5 C9.65 5 11.3 5 13 5 C13 5.33 13 5.66 13 6 C11.02 6 9.04 6 7 6 C6.34 4.35 5.68 2.7 5 1 C3.35 1 1.7 1 0 1 C0 0.67 0 0.34 0 0 Z " fill="#9698AC" transform="translate(195,262)"/>
<path d="M0 0 C0.33 0 0.66 0 1 0 C1.33 11.22 1.66 22.44 2 34 C1.01 34 0.02 34 -1 34 C-0.67 22.78 -0.34 11.56 0 0 Z " fill="#BBE5FC" transform="translate(245,174)"/>
<path d="M0 0 C2.97 0.495 2.97 0.495 6 1 C6.33 2.65 6.66 4.3 7 6 C5.0085944 6.38133299 3.00720923 6.71325582 1 7 C0 6 0 6 -0.0625 2.9375 C-0.041875 1.968125 -0.02125 0.99875 0 0 Z " fill="#CFD2DE" transform="translate(126,280)"/>
<path d="M0 0 C3.82097239 0.53069061 6.06171403 1.49701566 9 4 C8.34 5.32 7.68 6.64 7 8 C6.01 7.67 5.02 7.34 4 7 C4 6.34 4 5.68 4 5 C3.01 4.67 2.02 4.34 1 4 C0.3125 1.9375 0.3125 1.9375 0 0 Z " fill="#131637" transform="translate(128,276)"/>
<path d="M0 0 C4 1 4 1 5 2 C5.04092937 4.33297433 5.04241723 6.66705225 5 9 C3.68 9 2.36 9 1 9 C0.67 6.03 0.34 3.06 0 0 Z " fill="#0F1332" transform="translate(132,265)"/>
<path d="M0 0 C0.66 0 1.32 0 2 0 C2.98248524 4.0527516 3.08159574 7.83861737 3 12 C1.68 12 0.36 12 -1 12 C-0.67 8.04 -0.34 4.08 0 0 Z " fill="#BBC1D4" transform="translate(227,273)"/>
<path d="M0 0 C1.32 0 2.64 0 4 0 C4 2.31 4 4.62 4 7 C2.02 7.33 0.04 7.66 -2 8 C-1.125 1.125 -1.125 1.125 0 0 Z " fill="#13183A" transform="translate(225,266)"/>
<path d="M0 0 C1.93166016 0.01740234 1.93166016 0.01740234 3.90234375 0.03515625 C5.19269531 0.04417969 6.48304688 0.05320313 7.8125 0.0625 C8.81152344 0.07410156 9.81054688 0.08570313 10.83984375 0.09765625 C10.83984375 0.42765625 10.83984375 0.75765625 10.83984375 1.09765625 C9.55787109 1.18853516 9.55787109 1.18853516 8.25 1.28125 C6.59291016 1.40693359 6.59291016 1.40693359 4.90234375 1.53515625 C3.80019531 1.61636719 2.69804687 1.69757813 1.5625 1.78125 C-1.07125528 1.80183709 -1.07125528 1.80183709 -2.16015625 3.09765625 C-2.39443403 5.11360207 -2.57351749 7.13613025 -2.72265625 9.16015625 C-2.80644531 10.26488281 -2.89023438 11.36960938 -2.9765625 12.5078125 C-3.03714844 13.36246094 -3.09773437 14.21710938 -3.16015625 15.09765625 C-3.49015625 15.09765625 -3.82015625 15.09765625 -4.16015625 15.09765625 C-4.18701037 12.78521833 -4.20648466 10.47269355 -4.22265625 8.16015625 C-4.23425781 6.87238281 -4.24585938 5.58460938 -4.2578125 4.2578125 C-4.13018023 0.12763227 -4.13018023 0.12763227 0 0 Z " fill="#252F94" transform="translate(196.16015625,137.90234375)"/>
<path d="M0 0 C1.65 0 3.3 0 5 0 C4.67 2.31 4.34 4.62 4 7 C2.68 6.34 1.36 5.68 0 5 C0 3.35 0 1.7 0 0 Z " fill="#1B1D3A" transform="translate(121,282)"/>
<path d="M0 0 C2.475 0.495 2.475 0.495 5 1 C5 2.65 5 4.3 5 6 C3.35 6 1.7 6 0 6 C0 4.02 0 2.04 0 0 Z " fill="#E0E5EB" transform="translate(108,281)"/>
<path d="M0 0 C3.5 -0.3125 3.5 -0.3125 7 0 C7.66 0.66 8.32 1.32 9 2 C8.34 2 7.68 2 7 2 C7 2.99 7 3.98 7 5 C5.02 5.33 3.04 5.66 1 6 C1.33 4.68 1.66 3.36 2 2 C2.33 2.66 2.66 3.32 3 4 C3.66 4 4.32 4 5 4 C5 3.01 5 2.02 5 1 C2.69 1.66 0.38 2.32 -2 3 C-1.34 2.01 -0.68 1.02 0 0 Z " fill="#2D304E" transform="translate(125,263)"/>
<path d="M0 0 C0.99 0.33 1.98 0.66 3 1 C2.25 5.75 2.25 5.75 0 8 C-0.99 8 -1.98 8 -3 8 C-1.125 2.25 -1.125 2.25 0 0 Z " fill="#090D2E" transform="translate(115,283)"/>
<path d="M0 0 C0.33 1.65 0.66 3.3 1 5 C1.99 5.33 2.98 5.66 4 6 C3.67 6.66 3.34 7.32 3 8 C0.625 7.75 0.625 7.75 -2 7 C-3.3125 4.9375 -3.3125 4.9375 -4 3 C-1.125 0 -1.125 0 0 0 Z " fill="#0A0D30" transform="translate(180,283)"/>
<path d="M0 0 C0.66 0 1.32 0 2 0 C3.36741555 2.25221384 4.04066478 3.52557758 3.8125 6.1875 C3.544375 6.785625 3.27625 7.38375 3 8 C2.01 8.33 1.02 8.66 0 9 C0 7.02 0 5.04 0 3 C-0.66 2.67 -1.32 2.34 -2 2 C-1.34 2 -0.68 2 0 2 C0 1.34 0 0.68 0 0 Z " fill="#090C2F" transform="translate(187,278)"/>
<path d="M0 0 C2.5625 2.25 2.5625 2.25 5 5 C5 8.45502189 2.82428208 11.14460196 1 14 C0.67 13.01 0.34 12.02 0 11 C0.66 11 1.32 11 2 11 C2 8.69 2 6.38 2 4 C1.34 4 0.68 4 0 4 C0 2.68 0 1.36 0 0 Z " fill="#579CCD" transform="translate(257,221)"/>
<path d="M0 0 C0.99 0.33 1.98 0.66 3 1 C2.67 1.66 2.34 2.32 2 3 C3.32 3 4.64 3 6 3 C6 2.34 6 1.68 6 1 C6.66 1.33 7.32 1.66 8 2 C7.67 2.66 7.34 3.32 7 4 C5.35 4 3.7 4 2 4 C2 5.32 2 6.64 2 8 C1.34 8 0.68 8 0 8 C-1.125 2.25 -1.125 2.25 0 0 Z " fill="#DDE1EC" transform="translate(119,278)"/>
<path d="M0 0 C1.88391785 3.26545761 2.49287967 6.28111761 3 10 C1.68 10.33 0.36 10.66 -1 11 C-1.0270043 9.54176788 -1.04639787 8.08339325 -1.0625 6.625 C-1.07410156 5.81289063 -1.08570313 5.00078125 -1.09765625 4.1640625 C-1 2 -1 2 0 0 Z " fill="#040929" transform="translate(230,266)"/>
<path d="M0 0 C0 0.99 0 1.98 0 3 C-0.99 2.67 -1.98 2.34 -3 2 C-3.66 4.31 -4.32 6.62 -5 9 C-5.33 8.01 -5.66 7.02 -6 6 C-6.66 6 -7.32 6 -8 6 C-7.6875 4.125 -7.6875 4.125 -7 2 C-4 0 -4 0 0 0 Z " fill="#05072A" transform="translate(130,264)"/>
<path d="M0 0 C1.81325551 0.11351517 3.62563357 0.24112961 5.4375 0.375 C6.95150391 0.47941406 6.95150391 0.47941406 8.49609375 0.5859375 C9.73552734 0.79089844 9.73552734 0.79089844 11 1 C11.33 1.66 11.66 2.32 12 3 C11.39671875 2.96519531 10.7934375 2.93039062 10.171875 2.89453125 C5.07474512 2.6485551 5.07474512 2.6485551 0.4375 4.5 C-0.036875 4.995 -0.51125 5.49 -1 6 C-0.67 4.02 -0.34 2.04 0 0 Z " fill="#CBCEDA" transform="translate(122,261)"/>
<path d="M0 0 C1 3 1 3 0.22265625 4.82421875 C-0.8515625 6.54947917 -1.92578125 8.27473958 -3 10 C-3.99 10 -4.98 10 -6 10 C-5.49477778 5.62140745 -2.82172778 3.18348776 0 0 Z " fill="#63A6D4" transform="translate(84,219)"/>
<path d="M0 0 C1.9453125 -0.29296875 1.9453125 -0.29296875 4.125 -0.1875 C5.40375 -0.125625 6.6825 -0.06375 8 0 C8 3 8 3 7 5 C5.68 4.67 4.36 4.34 3 4 C3.66 4 4.32 4 5 4 C5 3.01 5 2.02 5 1 C2.69 1.66 0.38 2.32 -2 3 C-1.34 2.01 -0.68 1.02 0 0 Z " fill="#333454" transform="translate(106,263)"/>
<path d="M0 0 C1.98 0.495 1.98 0.495 4 1 C3.67 2.65 3.34 4.3 3 6 C1.68 5.34 0.36 4.68 -1 4 C-0.67 2.68 -0.34 1.36 0 0 Z " fill="#F4F6FB" transform="translate(109,269)"/>
<path d="M0 0 C1.98 0 3.96 0 6 0 C5.01 0.495 5.01 0.495 4 1 C4 1.66 4 2.32 4 3 C-0.455 3.495 -0.455 3.495 -5 4 C-5 3.67 -5 3.34 -5 3 C-3.35 3 -1.7 3 0 3 C0 2.01 0 1.02 0 0 Z " fill="#C0C4CF" transform="translate(225,289)"/>
<path d="M0 0 C0 1.32 0 2.64 0 4 C-3 4 -3 4 -5.1875 2 C-5.785625 1.34 -6.38375 0.68 -7 0 C-2.25 -1.125 -2.25 -1.125 0 0 Z " fill="#343554" transform="translate(111,276)"/>
<path d="M0 0 C1.65 0 3.3 0 5 0 C5 0.66 5 1.32 5 2 C4.34 2 3.68 2 3 2 C3 3.65 3 5.3 3 7 C2.67 6.01 2.34 5.02 2 4 C1.34 4 0.68 4 0 4 C0 2.68 0 1.36 0 0 Z " fill="#E1E4EB" transform="translate(153,268)"/>
<path d="M0 0 C0.99 0 1.98 0 3 0 C3 0.99 3 1.98 3 3 C3.66 3.33 4.32 3.66 5 4 C2.36 4 -0.28 4 -3 4 C-1.6875 2 -1.6875 2 0 0 Z " fill="#1E213D" transform="translate(109,288)"/>
<path d="M0 0 C1.32 0.66 2.64 1.32 4 2 C3.67 3.98 3.34 5.96 3 8 C2.67 6.68 2.34 5.36 2 4 C0.35 4 -1.3 4 -3 4 C-2.01 3.67 -1.02 3.34 0 3 C0 2.01 0 1.02 0 0 Z " fill="#C6C8D5" transform="translate(105,278)"/>
<path d="M0 0 C3.3 0 6.6 0 10 0 C10.33 1.32 10.66 2.64 11 4 C10.01 3.34 9.02 2.68 8 2 C5.71351152 1.75892674 5.71351152 1.75892674 3.3125 1.875 C2.50425781 1.89304687 1.69601563 1.91109375 0.86328125 1.9296875 C0.24839844 1.95289063 -0.36648437 1.97609375 -1 2 C-0.67 1.34 -0.34 0.68 0 0 Z " fill="#BFC2D0" transform="translate(180,262)"/>
<path d="M0 0 C0.66 0 1.32 0 2 0 C2.33 2.64 2.66 5.28 3 8 C2.01 8 1.02 8 0 8 C0 5.36 0 2.72 0 0 Z " fill="#4F9BD4" transform="translate(153,229)"/>
<path d="M0 0 C0.66 0 1.32 0 2 0 C2 2.64 2 5.28 2 8 C0.68 8.33 -0.64 8.66 -2 9 C-1.505 7.88625 -1.505 7.88625 -1 6.75 C0.22782871 3.86116688 0.22782871 3.86116688 0 0 Z " fill="#C5E5F6" transform="translate(261,225)"/>
<path d="M0 0 C1.9451 2.91765 2.45276317 4.62537285 3 8 C1.29115995 6.37660195 -0.37446717 4.70680947 -2 3 C-2 2.34 -2 1.68 -2 1 C-1.34 0.67 -0.68 0.34 0 0 Z " fill="#4E9DD1" transform="translate(81,228)"/>
<path d="M0 0 C1.65 0 3.3 0 5 0 C4.25 1.9375 4.25 1.9375 3 4 C0.875 4.75 0.875 4.75 -1 5 C-0.67 3.35 -0.34 1.7 0 0 Z " fill="#CFD4E2" transform="translate(127,268)"/>
<path d="M0 0 C0.99 0.33 1.98 0.66 3 1 C2.34 3.31 1.68 5.62 1 8 C0.34 7.67 -0.32 7.34 -1 7 C-1.04254356 5.00045254 -1.04080783 2.99958364 -1 1 C-0.67 0.67 -0.34 0.34 0 0 Z " fill="#E6F7FE" transform="translate(77,224)"/>
</svg>
